<svg width="462" height="36" viewBox="0 0 462 36" fill="none" xmlns="http://www.w3.org/2000/svg">
<path d="M90.9341 20.384C90.9341 19.3833 91.7295 18.5637 92.7298 18.5338L107.259 18.0986C108.878 18.0986 110.28 17.8868 111.464 17.4631C112.689 17.0394 113.696 16.4853 114.485 15.8008C115.315 15.0838 115.927 14.2852 116.322 13.4052C116.756 12.5252 116.973 11.6289 116.973 10.7163C116.973 9.77105 116.756 8.85844 116.322 7.97842C115.927 7.0984 115.315 6.31615 114.485 5.63169C113.696 4.91464 112.689 4.34426 111.464 3.92055C110.28 3.49683 108.878 3.28497 107.259 3.28497H91.5961C90.9481 3.28497 90.4228 2.75964 90.4228 2.11161C90.4228 1.46359 90.9481 0.938255 91.5961 0.938255H107.259C109.391 0.938255 111.247 1.2153 112.827 1.76938C114.446 2.32347 115.789 3.05682 116.855 3.96943C117.921 4.88205 118.711 5.92503 119.224 7.0984C119.777 8.27176 120.053 9.46141 120.053 10.6674C120.053 11.7429 119.836 12.8022 119.402 13.8452C118.968 14.8882 118.336 15.8497 117.506 16.7297C116.677 17.5772 115.631 18.3105 114.367 18.9298C113.103 19.5491 111.642 19.9891 109.983 20.2498L122.421 33.0191C123.271 33.8917 122.653 35.3568 121.435 35.3568C121.06 35.3568 120.701 35.2039 120.442 34.9334L106.489 20.3965H94.1084L93.8628 33.919C93.8483 34.7173 93.197 35.3568 92.3986 35.3568C91.5898 35.3568 90.9341 34.7012 90.9341 33.8924V20.384Z" fill="black"/>
<path d="M192.515 2.49602C192.515 1.47368 193.344 0.644913 194.366 0.644913H207.425C209.636 0.644913 211.551 0.90566 213.171 1.42715C214.829 1.94865 216.192 2.63311 217.258 3.48053C218.363 4.29537 219.193 5.24057 219.746 6.31615C220.299 7.39174 220.575 8.49991 220.575 9.64068C220.575 11.0096 220.18 12.3296 219.39 13.6008C218.64 14.8719 217.435 15.9312 215.777 16.7786C217.238 17.1046 218.502 17.5772 219.568 18.1964C220.674 18.7831 221.582 19.4676 222.293 20.2498C223.004 21.032 223.537 21.8795 223.892 22.7921C224.248 23.7047 224.425 24.6336 224.425 25.5788C224.425 26.7522 224.149 27.8929 223.596 29.0011C223.043 30.1093 222.214 31.1034 221.108 31.9834C220.042 32.8308 218.679 33.5316 217.021 34.0857C215.402 34.6072 213.486 34.8679 211.275 34.8679H194.366C193.344 34.8679 192.515 34.0392 192.515 33.0168V2.49602ZM195.4 16.3386H207.425C209.083 16.3386 210.544 16.1593 211.808 15.8008C213.072 15.4097 214.118 14.9045 214.948 14.2852C215.816 13.6334 216.448 12.9163 216.843 12.1341C217.277 11.3192 217.495 10.4881 217.495 9.64068C217.495 8.79325 217.277 7.97841 216.843 7.19617C216.448 6.41393 215.816 5.71318 214.948 5.0939C214.118 4.44204 213.072 3.93684 211.808 3.57831C210.544 3.18719 209.083 2.99164 207.425 2.99164H195.4V16.3386ZM195.4 32.5212H211.275C212.973 32.5212 214.454 32.3256 215.718 31.9345C216.981 31.5434 218.028 31.0219 218.857 30.37C219.686 29.7182 220.299 28.9848 220.693 28.17C221.128 27.3552 221.345 26.5077 221.345 25.6277C221.345 24.7803 221.128 23.9492 220.693 23.1343C220.259 22.2869 219.607 21.5535 218.739 20.9343C217.909 20.2824 216.863 19.7609 215.599 19.3698C214.375 18.9461 212.934 18.7179 211.275 18.6853H195.4V32.5212Z" fill="black"/>
<path d="M266.97 2.57607C266.97 3.2106 266.456 3.72498 265.822 3.72498H240.634C240 3.72498 239.485 3.2106 239.485 2.57607C239.485 1.94154 240 1.42715 240.634 1.42715H265.822C266.456 1.42715 266.97 1.94154 266.97 2.57607ZM267.504 18.4164C267.504 19.024 267.011 19.5165 266.404 19.5165H241.118C240.511 19.5165 240.018 19.024 240.018 18.4164C240.018 17.8089 240.511 17.3164 241.118 17.3164H266.404C267.011 17.3164 267.504 17.8089 267.504 18.4164ZM267.444 34.2324C267.444 34.8534 266.941 35.3568 266.32 35.3568H241.143C240.522 35.3568 240.018 34.8534 240.018 34.2324C240.018 33.6113 240.522 33.1079 241.143 33.1079H266.32C266.941 33.1079 267.444 33.6113 267.444 34.2324Z" fill="black"/>
<path d="M308.943 33.059C309.578 33.059 310.092 33.5734 310.092 34.2079C310.092 34.8424 309.578 35.3568 308.943 35.3568H284.029V2.58508C284.029 1.78356 284.679 1.13381 285.48 1.13381C286.282 1.13381 286.931 1.78357 286.931 2.58508V33.059H308.943Z" fill="black"/>
<path d="M349.147 33.059C349.782 33.059 350.296 33.5734 350.296 34.2079C350.296 34.8424 349.782 35.3568 349.147 35.3568H324.233V2.58507C324.233 1.78356 324.882 1.13381 325.684 1.13381C326.485 1.13381 327.135 1.78356 327.135 2.58507V33.059H349.147Z" fill="black"/>
<path d="M363.863 2.60408C363.853 1.79523 364.505 1.13381 365.314 1.13381C366.108 1.13381 366.755 1.77193 366.765 2.56585L367.018 21.7654C367.018 23.721 367.413 25.4322 368.203 26.8989C369.032 28.333 370.118 29.5389 371.461 30.5167C372.803 31.4945 374.304 32.2279 375.963 32.7168C377.661 33.2057 379.398 33.4501 381.175 33.4501C382.952 33.4501 384.69 33.2057 386.388 32.7168C388.086 32.2279 389.607 31.4945 390.949 30.5167C392.292 29.5389 393.358 28.333 394.148 26.8989C394.977 25.4322 395.392 23.721 395.392 21.7654L395.139 2.57405C395.129 1.78172 395.768 1.13381 396.56 1.13381C397.338 1.13381 397.972 1.75889 397.982 2.53661L398.235 21.7654C398.235 24.1447 397.742 26.2307 396.754 28.0233C395.807 29.7834 394.523 31.2664 392.904 32.4723C391.324 33.6457 389.508 34.5257 387.454 35.1124C385.401 35.6991 383.308 35.9924 381.175 35.9924C379.082 35.9924 377.009 35.6828 374.956 35.0635C372.942 34.4442 371.125 33.5479 369.506 32.3745C367.926 31.1686 366.643 29.6856 365.656 27.9255C364.668 26.1329 364.155 24.0795 364.116 21.7654L363.863 2.60408Z" fill="black"/>
<path d="M418.869 2.21946C419.007 1.58569 419.568 1.13381 420.216 1.13381C420.603 1.13381 420.972 1.296 421.233 1.58089L435.988 17.6677C436.476 18.2 437.315 18.2011 437.805 17.67L452.637 1.57892C452.898 1.29521 453.267 1.13381 453.652 1.13381C454.302 1.13381 454.864 1.58624 455.002 2.22077L461.862 33.6758C462.05 34.5398 461.392 35.3568 460.508 35.3568C459.854 35.3568 459.288 34.8988 459.152 34.2585L453.26 6.46283L438.066 22.664C437.773 22.9771 437.362 23.1547 436.933 23.1547C436.494 23.1547 436.076 22.9688 435.781 22.6431L421.154 6.46283L414.735 34.275C414.589 34.9082 414.025 35.3568 413.375 35.3568C412.484 35.3568 411.821 34.5339 412.011 33.6636L418.869 2.21946Z" fill="black"/>
<path d="M16.0284 0.644913H1.8511C0.828768 0.644913 0 1.47368 0 2.49602V13.9285C0 14.8051 0.710589 15.5157 1.58715 15.5157C2.4637 15.5157 3.17429 14.8051 3.17429 13.9285V2.99164H16.0284C17.687 2.99164 19.1283 3.23608 20.3525 3.72498C21.5767 4.18129 22.5837 4.80056 23.3735 5.5828C24.2028 6.36504 24.8149 7.24506 25.2098 8.22287C25.6442 9.20067 25.8614 10.2111 25.8614 11.254C25.8614 12.297 25.6442 13.3237 25.2098 14.3341C24.8149 15.3119 24.2028 16.1919 23.3735 16.9742C22.5837 17.7564 21.5767 18.392 20.3525 18.8809C19.1283 19.3372 17.687 19.5653 16.0284 19.5653H3.17429H1.23407C0.552512 19.5653 0 20.1179 0 20.7994V33.8909C0 34.7005 0.656296 35.3568 1.46588 35.3568C2.26396 35.3568 2.91539 34.7184 2.93146 33.9205L3.17429 21.8632H16.0284C18.2003 21.8632 20.0959 21.5698 21.715 20.9832C23.3341 20.3639 24.6767 19.5653 25.743 18.5875C26.8487 17.5772 27.6582 16.4364 28.1716 15.1652C28.7245 13.8941 29.0009 12.5904 29.0009 11.254C29.0009 9.91772 28.7245 8.63028 28.1716 7.39174C27.6582 6.1206 26.8487 4.97983 25.743 3.96943C24.6767 2.95904 23.3341 2.1605 21.715 1.57382C20.0959 0.954549 18.2003 0.644913 16.0284 0.644913Z" fill="black"/>
<path d="M54.9554 1.26065C55.1751 0.879656 55.5815 0.644913 56.0214 0.644913C56.4612 0.644913 56.8676 0.879656 57.0873 1.26065L75.5985 33.3539C76.112 34.2443 75.4694 35.3568 74.4416 35.3568C73.9347 35.3568 73.4715 35.0699 73.2458 34.6161L69.9173 27.9255H48.6246C48.0099 27.9255 47.5117 27.4273 47.5117 26.8127C47.5117 26.1985 48.0091 25.7005 48.6233 25.6998L68.5548 25.6766L56.0214 4.94723L44.0314 25.6766L42.669 27.9255L38.8193 34.6719C38.5776 35.0954 38.1275 35.3568 37.6399 35.3568C36.5948 35.3568 35.9414 34.2257 36.4636 33.3204L54.9554 1.26065Z" fill="black"/>
<path d="M156.188 1.26065C156.407 0.879654 156.814 0.644913 157.254 0.644913C157.693 0.644913 158.1 0.879655 158.32 1.26065L176.831 33.3539C177.344 34.2443 176.702 35.3568 175.674 35.3568C175.167 35.3568 174.704 35.0699 174.478 34.6161L171.15 27.9255H149.818C149.204 27.9255 148.705 27.4273 148.705 26.8127C148.705 26.1985 149.203 25.7005 149.817 25.6998L169.787 25.6766L157.525 4.45833L145.264 25.6766L143.901 27.9255L140.052 34.6719C139.81 35.0954 139.36 35.3568 138.872 35.3568C137.827 35.3568 137.174 34.2257 137.696 33.3204L156.188 1.26065Z" fill="black"/>
</svg>
