<svg width="190" height="165" viewBox="0 0 190 165" fill="none" xmlns="http://www.w3.org/2000/svg">
<g id="Vector 2">
<mask id="path-1-inside-1_122_686" fill="white">
<path d="M92.7476 0L0 164.561H94.6025L70.4881 123.487C62.7907 141.025 55.8002 148.221 37.099 142.566L93.2775 42.3989L151.576 141.771C145.72 142.831 141.398 143.726 137.266 143.096C132.837 142.421 128.667 140.015 124.282 134.881C112.662 113.729 105.748 101.968 93.0126 81.0879C90.8519 87.9618 87.8788 92.0959 85.0628 96.7225C82.2467 101.349 83.7892 104.837 85.0628 108.117L114.742 158.466C116.916 162.027 117.657 163.501 120.307 164.296C122.957 165.091 190 164.561 190 164.561L92.7476 0Z"/>
</mask>
<path d="M0 164.561L-43.5582 140.011L-85.5749 214.561H0V164.561ZM92.7476 0L135.792 -25.4388L91.7208 -100.013L49.1894 -24.5497L92.7476 0ZM190 164.561L190.395 214.559L277.221 213.873L233.045 139.122L190 164.561ZM114.742 158.466L71.6686 183.856L71.8655 184.191L72.0676 184.522L114.742 158.466ZM85.0628 108.117L38.4533 126.216L39.9249 130.006L41.9894 133.508L85.0628 108.117ZM93.0126 81.0879L135.699 55.0518L78.3425 -38.9843L45.3134 66.0948L93.0126 81.0879ZM124.282 134.881L80.4588 158.955L82.9302 163.454L86.2641 167.357L124.282 134.881ZM151.576 141.771L160.476 190.973L230.933 178.228L194.702 116.471L151.576 141.771ZM93.2775 42.3989L136.404 17.0982L92.3016 -58.076L49.668 17.9406L93.2775 42.3989ZM37.099 142.566L-6.51053 118.108L-36.9645 172.408L22.6281 190.426L37.099 142.566ZM70.4881 123.487L113.606 98.1722L64.045 13.7545L24.7037 103.392L70.4881 123.487ZM94.6025 164.561V214.561H181.938L137.721 139.246L94.6025 164.561ZM137.266 143.096L129.729 192.525L129.729 192.525L137.266 143.096ZM43.5582 189.11L136.306 24.5497L49.1894 -24.5497L-43.5582 140.011L43.5582 189.11ZM49.7026 25.4388L146.955 189.999L233.045 139.122L135.792 -25.4388L49.7026 25.4388ZM190 164.561C189.605 114.562 189.605 114.562 189.605 114.562C189.604 114.562 189.604 114.562 189.603 114.562C189.601 114.562 189.599 114.562 189.595 114.562C189.588 114.562 189.576 114.562 189.561 114.563C189.53 114.563 189.484 114.563 189.422 114.564C189.299 114.565 189.114 114.566 188.871 114.568C188.387 114.571 187.673 114.577 186.762 114.583C184.94 114.596 182.33 114.613 179.189 114.632C172.9 114.669 164.507 114.71 156.05 114.726C147.554 114.743 139.151 114.734 132.781 114.675C129.555 114.645 127.116 114.604 125.537 114.557C124.701 114.532 124.476 114.516 124.645 114.527C124.699 114.53 125.287 114.566 126.161 114.661C126.599 114.709 127.44 114.807 128.514 114.982C129.291 115.109 131.681 115.506 134.674 116.404L105.939 212.187C110.897 213.674 115.193 214.058 115.319 214.072C116.602 214.212 117.717 214.289 118.407 214.332C119.85 214.422 121.337 214.477 122.587 214.514C125.182 214.59 128.415 214.638 131.848 214.67C138.794 214.735 147.648 214.743 156.244 214.726C164.879 214.709 173.413 214.668 179.778 214.63C182.963 214.611 185.611 214.594 187.466 214.581C188.393 214.574 189.123 214.569 189.621 214.565C189.871 214.563 190.063 214.562 190.193 214.561C190.258 214.56 190.308 214.56 190.342 214.56C190.359 214.559 190.372 214.559 190.381 214.559C190.385 214.559 190.389 214.559 190.391 214.559C190.392 214.559 190.393 214.559 190.394 214.559C190.395 214.559 190.395 214.559 190 164.561ZM134.674 116.404C137.554 117.268 141.454 118.789 145.637 121.474C149.885 124.202 153.022 127.229 155.193 129.744C157.1 131.953 158.214 133.727 158.278 133.827C158.357 133.952 158.357 133.955 158.177 133.661C158.092 133.522 158.001 133.372 157.867 133.15C157.741 132.944 157.585 132.686 157.416 132.41L72.0676 184.522C72.2321 184.791 73.2433 186.47 74.0344 187.707C74.9316 189.11 76.8036 191.97 79.4991 195.092C82.4585 198.52 86.4127 202.287 91.6136 205.626C96.7483 208.922 101.734 210.926 105.939 212.187L134.674 116.404ZM157.815 133.075L128.136 82.7265L41.9894 133.508L71.6686 183.856L157.815 133.075ZM131.672 90.0185C131.038 88.3845 131.406 89.3025 131.681 90.1482C132.075 91.36 132.88 94.0794 133.263 97.7704C133.665 101.656 133.556 106.171 132.476 110.969C131.405 115.728 129.626 119.676 127.773 122.719L42.3523 70.726C35.2453 82.4023 32.4791 95.3773 33.7956 108.079C34.3709 113.631 35.6249 118.126 36.5782 121.059C37.4124 123.626 38.4511 126.21 38.4533 126.216L131.672 90.0185ZM127.773 122.719C129.033 120.649 136.265 110.228 140.712 96.0809L45.3134 66.0948C45.3357 66.024 45.3916 65.8652 45.4762 65.6726C45.558 65.4864 45.5985 65.4239 45.5196 65.5669C45.4135 65.7587 45.1991 66.1305 44.6645 66.9949C44.3763 67.461 44.1172 67.8743 43.699 68.545C43.3223 69.1489 42.8507 69.9072 42.3523 70.726L127.773 122.719ZM50.3262 107.124C62.7558 127.502 69.276 138.599 80.4588 158.955L168.105 110.808C156.048 88.8599 148.74 76.4329 135.699 55.0518L50.3262 107.124ZM194.702 116.471L136.404 17.0982L50.1513 67.6996L108.45 167.072L194.702 116.471ZM49.668 17.9406L-6.51053 118.108L80.7086 167.025L136.887 66.8572L49.668 17.9406ZM22.6281 190.426C38.597 195.255 62.4614 198.422 85.1901 183.633C103.871 171.477 112.409 152.384 116.273 143.581L24.7037 103.392C23.2462 106.713 22.7145 107.433 23.0195 106.975C23.4127 106.383 25.7316 103.015 30.6499 99.8151C36.124 96.253 42.0166 94.7064 46.8722 94.4876C50.9598 94.3034 52.9313 95.1177 51.57 94.7061L22.6281 190.426ZM27.37 148.801L51.4844 189.875L137.721 139.246L113.606 98.1722L27.37 148.801ZM94.6025 114.561H0V214.561H94.6025V114.561ZM86.2641 167.357C96.1498 178.93 110.354 189.57 129.729 192.525L144.804 93.6677C149.371 94.3642 153.594 95.9921 157.077 98.1484C160.298 100.143 161.967 102.017 162.299 102.406L86.2641 167.357ZM129.729 192.525C144.104 194.717 158.339 191.359 160.476 190.973L142.676 92.5697C142.274 92.6424 141.886 92.7132 141.529 92.7782C141.162 92.8451 140.839 92.904 140.52 92.962C139.881 93.078 139.383 93.167 138.951 93.2415C138.048 93.3973 137.789 93.4268 137.857 93.4187C137.986 93.4032 140.776 93.0534 144.804 93.6677L129.729 192.525Z" fill="black" mask="url(#path-1-inside-1_122_686)"/>
</g>
</svg>
