<svg width="683" height="355" viewBox="0 0 683 355" fill="none" xmlns="http://www.w3.org/2000/svg">
<path d="M3.12305 316.477L34.9459 261.526L56.327 298.361L83.1775 297.757L106.547 269.98L133.895 302.588L166.713 222.275L217.928 221.671L237.32 178.193L252.734 200.536L282.568 193.893L279.585 35.6818L357.153 239.787L379.031 164.908L404.39 172.758L415.329 154.642L444.169 151.623L457.594 124.449L486.931 142.565L511.792 87.6138L540.632 52.5899L569.471 71.9135L602.289 5.48877L615.217 33.2664L627.648 31.4548L647.537 83.9907L680.851 112.372" stroke="url(#paint0_linear_2_222)" stroke-width="3.97786" stroke-miterlimit="10"/>
<path d="M2.62598 353.917L34.4489 298.965L55.8299 335.801L82.6805 335.197L106.05 307.419L133.398 340.028L171.685 277.226H208.978L236.823 215.632L252.237 237.975L282.071 231.333L299.474 240.995L348.203 151.019L378.534 202.347L398.423 176.381L414.832 192.082L443.672 189.063L469.528 151.019L486.434 180.005L525.715 93.0487H553.063L568.974 109.353L601.792 42.9282L614.72 70.7058L627.15 47.7591L634.112 60.4402L680.618 45.9475" stroke="url(#paint1_linear_2_222)" stroke-width="3.97786" stroke-miterlimit="10"/>
<defs>
<linearGradient id="paint0_linear_2_222" x1="379" y1="130.026" x2="-12.2417" y2="249.55" gradientUnits="userSpaceOnUse">
<stop stop-color="#BCBCBC"/>
<stop offset="1" stop-color="#BCBCBC" stop-opacity="0"/>
</linearGradient>
<linearGradient id="paint1_linear_2_222" x1="3.00013" y1="354.091" x2="722.904" y2="134.795" gradientUnits="userSpaceOnUse">
<stop/>
<stop offset="1" stop-opacity="0"/>
</linearGradient>
</defs>
</svg>
