<svg width="332" height="79" viewBox="0 0 332 79" fill="none" xmlns="http://www.w3.org/2000/svg">
<path d="M44.4782 0L0 78.917H45.3677L33.8034 59.2195C30.112 67.6302 26.7597 71.081 17.7913 68.3693L44.7323 20.3329L72.6901 67.9881C69.8816 68.4961 67.809 68.9256 65.8277 68.6235C63.7037 68.2996 61.7036 67.1457 59.6008 64.684C54.0284 54.5402 50.7127 48.8998 44.6053 38.8866C43.5691 42.1831 42.1433 44.1657 40.7929 46.3844C39.4424 48.6031 40.1821 50.276 40.7929 51.8489L55.0259 75.9942C56.0685 77.7018 56.4238 78.4087 57.6946 78.7899C58.9654 79.1712 91.1167 78.917 91.1167 78.917L44.4782 0Z" fill="black"/>
<path d="M153.29 46.7386C153.29 46.2587 153.671 45.8656 154.151 45.8513L161.118 45.6426C161.895 45.6426 162.567 45.541 163.135 45.3378C163.722 45.1346 164.205 44.8689 164.584 44.5407C164.982 44.1968 165.275 43.8138 165.465 43.3918C165.673 42.9698 165.777 42.5399 165.777 42.1023C165.777 41.649 165.673 41.2114 165.465 40.7893C165.275 40.3673 164.982 39.9922 164.584 39.6639C164.205 39.3201 163.722 39.0465 163.135 38.8433C162.567 38.6401 161.895 38.5385 161.118 38.5385H153.607C153.296 38.5385 153.044 38.2866 153.044 37.9758C153.044 37.6651 153.296 37.4131 153.607 37.4131H161.118C162.141 37.4131 163.031 37.546 163.789 37.8117C164.565 38.0774 165.209 38.4291 165.72 38.8668C166.232 39.3044 166.61 39.8046 166.857 40.3673C167.122 40.93 167.254 41.5005 167.254 42.0788C167.254 42.5947 167.15 43.1026 166.942 43.6028C166.733 44.103 166.43 44.5641 166.033 44.9861C165.635 45.3925 165.133 45.7442 164.527 46.0412C163.921 46.3382 163.22 46.5492 162.425 46.6742L168.39 52.7979C168.797 53.2163 168.501 53.919 167.917 53.919C167.737 53.919 167.565 53.8456 167.44 53.7159L160.749 46.7446H154.812L154.694 53.2294C154.687 53.6123 154.375 53.919 153.992 53.919C153.604 53.919 153.29 53.6045 153.29 53.2167V46.7386Z" fill="black"/>
<path d="M202.004 38.1602C202.004 37.6699 202.401 37.2725 202.892 37.2725H209.154C210.215 37.2725 211.133 37.3975 211.91 37.6476C212.705 37.8977 213.358 38.2259 213.87 38.6323C214.4 39.0231 214.798 39.4764 215.063 39.9922C215.328 40.508 215.46 41.0394 215.46 41.5865C215.46 42.243 215.271 42.876 214.892 43.4856C214.532 44.0952 213.955 44.6032 213.159 45.0096C213.86 45.1659 214.466 45.3925 214.978 45.6895C215.508 45.9708 215.943 46.2991 216.284 46.6742C216.625 47.0494 216.881 47.4557 217.051 47.8934C217.222 48.3311 217.307 48.7765 217.307 49.2298C217.307 49.7925 217.174 50.3396 216.909 50.871C216.644 51.4025 216.246 51.8792 215.716 52.3012C215.205 52.7076 214.551 53.0437 213.756 53.3094C212.98 53.5595 212.061 53.6845 211.001 53.6845H202.892C202.401 53.6845 202.004 53.2871 202.004 52.7968V38.1602ZM203.387 44.7986H209.154C209.949 44.7986 210.65 44.7126 211.256 44.5407C211.862 44.3531 212.364 44.1108 212.762 43.8138C213.178 43.5012 213.481 43.1574 213.671 42.7822C213.879 42.3915 213.983 41.9929 213.983 41.5865C213.983 41.1801 213.879 40.7893 213.671 40.4142C213.481 40.0391 213.178 39.703 212.762 39.406C212.364 39.0934 211.862 38.8511 211.256 38.6792C210.65 38.4916 209.949 38.3979 209.154 38.3979H203.387V44.7986ZM203.387 52.5591H211.001C211.815 52.5591 212.525 52.4653 213.131 52.2778C213.737 52.0902 214.239 51.8401 214.637 51.5275C215.034 51.2149 215.328 50.8632 215.517 50.4724C215.726 50.0817 215.83 49.6753 215.83 49.2533C215.83 48.8469 215.726 48.4483 215.517 48.0575C215.309 47.6511 214.996 47.2994 214.58 47.0025C214.182 46.6899 213.68 46.4398 213.074 46.2522C212.487 46.049 211.796 45.9396 211.001 45.924H203.387V52.5591Z" fill="black"/>
<path d="M237.71 38.1986C237.71 38.5029 237.463 38.7495 237.159 38.7495H225.08C224.776 38.7495 224.529 38.5029 224.529 38.1986C224.529 37.8943 224.776 37.6476 225.08 37.6476H237.159C237.463 37.6476 237.71 37.8943 237.71 38.1986ZM237.966 45.795C237.966 46.0863 237.729 46.3225 237.438 46.3225H225.312C225.021 46.3225 224.785 46.0863 224.785 45.795C224.785 45.5037 225.021 45.2675 225.312 45.2675H237.438C237.729 45.2675 237.966 45.5037 237.966 45.795ZM237.937 53.3797C237.937 53.6775 237.696 53.919 237.398 53.919H225.324C225.026 53.919 224.785 53.6775 224.785 53.3797C224.785 53.0819 225.026 52.8405 225.324 52.8405H237.398C237.696 52.8405 237.937 53.0819 237.937 53.3797Z" fill="black"/>
<path d="M257.839 52.817C258.143 52.817 258.39 53.0637 258.39 53.368C258.39 53.6723 258.143 53.919 257.839 53.919H245.891V38.2029C245.891 37.8185 246.202 37.5069 246.586 37.5069C246.971 37.5069 247.282 37.8185 247.282 38.2029V52.817H257.839Z" fill="black"/>
<path d="M277.119 52.817C277.423 52.817 277.67 53.0637 277.67 53.368C277.67 53.6723 277.423 53.919 277.119 53.919H265.171V38.2029C265.171 37.8185 265.482 37.5069 265.867 37.5069C266.251 37.5069 266.563 37.8185 266.563 38.2029V52.817H277.119Z" fill="black"/>
<path d="M284.176 38.212C284.171 37.8241 284.484 37.5069 284.872 37.5069C285.253 37.5069 285.563 37.8129 285.568 38.1937L285.689 47.401C285.689 48.3389 285.878 49.1595 286.257 49.8628C286.655 50.5506 287.176 51.1289 287.82 51.5978C288.463 52.0668 289.183 52.4184 289.978 52.6529C290.793 52.8874 291.626 53.0046 292.478 53.0046C293.33 53.0046 294.164 52.8874 294.978 52.6529C295.792 52.4184 296.521 52.0668 297.165 51.5978C297.809 51.1289 298.321 50.5506 298.699 49.8628C299.097 49.1595 299.296 48.3389 299.296 47.401L299.175 38.1976C299.17 37.8176 299.476 37.5069 299.856 37.5069C300.229 37.5069 300.533 37.8067 300.538 38.1796L300.659 47.401C300.659 48.5421 300.423 49.5424 299.949 50.4021C299.495 51.2461 298.879 51.9573 298.103 52.5357C297.345 53.0984 296.474 53.5204 295.489 53.8017C294.505 54.0831 293.501 54.2238 292.478 54.2238C291.475 54.2238 290.48 54.0753 289.496 53.7783C288.53 53.4813 287.659 53.0515 286.882 52.4888C286.125 51.9104 285.509 51.1993 285.036 50.3552C284.562 49.4955 284.316 48.5108 284.297 47.401L284.176 38.212Z" fill="black"/>
<path d="M310.554 38.0276C310.621 37.7236 310.89 37.5069 311.201 37.5069C311.386 37.5069 311.563 37.5847 311.688 37.7213L318.764 45.4359C318.998 45.6912 319.401 45.6917 319.636 45.437L326.748 37.7204C326.874 37.5843 327.05 37.5069 327.236 37.5069C327.547 37.5069 327.816 37.7239 327.883 38.0282L331.172 53.1128C331.263 53.5271 330.947 53.919 330.523 53.919C330.209 53.919 329.938 53.6993 329.873 53.3922L327.047 40.0625L319.761 47.832C319.62 47.9821 319.423 48.0673 319.218 48.0673C319.007 48.0673 318.806 47.9782 318.665 47.8219L311.651 40.0625L308.572 53.4001C308.502 53.7038 308.231 53.919 307.92 53.919C307.493 53.919 307.175 53.5243 307.266 53.107L310.554 38.0276Z" fill="black"/>
<path d="M117.368 37.2725H110.569C110.079 37.2725 109.681 37.6699 109.681 38.1602V43.6428C109.681 44.0631 110.022 44.4039 110.442 44.4039C110.863 44.4039 111.203 44.0631 111.203 43.6428V38.3979H117.368C118.163 38.3979 118.854 38.5151 119.441 38.7495C120.029 38.9684 120.511 39.2654 120.89 39.6405C121.288 40.0156 121.581 40.4376 121.771 40.9066C121.979 41.3755 122.083 41.86 122.083 42.3602C122.083 42.8604 121.979 43.3527 121.771 43.8373C121.581 44.3062 121.288 44.7282 120.89 45.1034C120.511 45.4785 120.029 45.7833 119.441 46.0177C118.854 46.2366 118.163 46.346 117.368 46.346H111.203H110.273C109.946 46.346 109.681 46.6109 109.681 46.9378V53.216C109.681 53.6042 109.996 53.919 110.384 53.919C110.767 53.919 111.079 53.6128 111.087 53.2301L111.203 47.4479H117.368C118.409 47.4479 119.318 47.3073 120.095 47.0259C120.871 46.7289 121.515 46.346 122.026 45.8771C122.557 45.3925 122.945 44.8454 123.191 44.2359C123.456 43.6263 123.589 43.001 123.589 42.3602C123.589 41.7193 123.456 41.1019 123.191 40.508C122.945 39.8984 122.557 39.3513 122.026 38.8668C121.515 38.3822 120.871 37.9993 120.095 37.7179C119.318 37.421 118.409 37.2725 117.368 37.2725Z" fill="black"/>
<path d="M136.036 37.5677C136.141 37.385 136.336 37.2725 136.547 37.2725C136.758 37.2725 136.953 37.385 137.058 37.5677L145.935 52.9585C146.182 53.3855 145.873 53.919 145.38 53.919C145.137 53.919 144.915 53.7814 144.807 53.5638L143.211 50.3552H133C132.705 50.3552 132.466 50.1163 132.466 49.8215C132.466 49.527 132.704 49.2882 132.999 49.2878L142.557 49.2767L136.547 39.3357L130.797 49.2767L130.144 50.3552L128.297 53.5905C128.182 53.7936 127.966 53.919 127.732 53.919C127.231 53.919 126.917 53.3765 127.168 52.9424L136.036 37.5677Z" fill="black"/>
<path d="M184.583 37.5677C184.688 37.385 184.883 37.2725 185.094 37.2725C185.305 37.2725 185.5 37.385 185.605 37.5677L194.482 52.9585C194.729 53.3855 194.421 53.919 193.928 53.919C193.685 53.919 193.462 53.7814 193.354 53.5638L191.758 50.3552H181.528C181.233 50.3552 180.995 50.1163 180.995 49.8215C180.995 49.527 181.233 49.2882 181.528 49.2878L191.105 49.2767L185.224 39.1012L179.344 49.2767L178.691 50.3552L176.845 53.5905C176.729 53.7936 176.513 53.919 176.279 53.919C175.778 53.919 175.464 53.3765 175.715 52.9424L184.583 37.5677Z" fill="black"/>
<path d="M120.215 70.2538H120.911L124.393 78.6343H123.52L122.434 76.0139H118.668L117.594 78.6343H116.709L120.215 70.2538ZM122.245 75.3647L120.557 71.2217L118.845 75.3647H122.245ZM129.978 78.0087C130.411 78.0087 130.773 77.9379 131.064 77.7962C131.355 77.6467 131.583 77.45 131.748 77.2061C131.914 76.9542 132.032 76.6749 132.102 76.368C132.173 76.0611 132.209 75.7503 132.209 75.4355V72.1659H132.94V75.4355C132.94 75.8683 132.885 76.2814 132.775 76.6749C132.673 77.0605 132.504 77.4067 132.268 77.7136C132.039 78.0126 131.736 78.2487 131.359 78.4218C130.989 78.5949 130.533 78.6815 129.99 78.6815C129.439 78.6815 128.971 78.591 128.585 78.41C128.207 78.229 127.904 77.9851 127.676 77.6782C127.448 77.3713 127.283 77.0251 127.18 76.6395C127.078 76.246 127.027 75.8447 127.027 75.4355V72.1659H127.759V75.4355C127.759 75.7582 127.794 76.0768 127.865 76.3916C127.944 76.6985 128.066 76.9739 128.231 77.2179C128.404 77.4618 128.632 77.6546 128.915 77.7962C129.199 77.9379 129.553 78.0087 129.978 78.0087ZM141.608 72.8269H139.118V78.6343H138.386V72.8269H135.872V72.1659H141.608V72.8269ZM147.247 78.6815C146.752 78.6815 146.299 78.591 145.89 78.41C145.489 78.2212 145.138 77.9733 144.839 77.6664C144.548 77.3516 144.324 77.0015 144.167 76.6159C144.009 76.2224 143.931 75.8172 143.931 75.4001C143.931 74.9673 144.013 74.5581 144.178 74.1725C144.344 73.7791 144.576 73.4289 144.875 73.122C145.174 72.8151 145.524 72.5751 145.925 72.402C146.335 72.221 146.779 72.1305 147.259 72.1305C147.747 72.1305 148.192 72.225 148.593 72.4138C149.002 72.6027 149.352 72.8545 149.643 73.1692C149.935 73.484 150.159 73.8381 150.316 74.2316C150.474 74.6171 150.552 75.0106 150.552 75.4119C150.552 75.8447 150.47 76.2578 150.304 76.6513C150.139 77.0447 149.907 77.3949 149.608 77.7018C149.317 78.0008 148.967 78.2408 148.558 78.4218C148.156 78.5949 147.719 78.6815 147.247 78.6815ZM144.674 75.4001C144.674 75.7385 144.733 76.065 144.851 76.3798C144.977 76.6867 145.154 76.966 145.382 77.2179C145.611 77.4618 145.882 77.6546 146.197 77.7962C146.519 77.9379 146.87 78.0087 147.247 78.0087C147.641 78.0087 147.995 77.9339 148.31 77.7844C148.624 77.6349 148.892 77.4343 149.112 77.1824C149.333 76.9306 149.502 76.6513 149.62 76.3444C149.746 76.0375 149.809 75.7227 149.809 75.4001C149.809 75.0617 149.746 74.7391 149.62 74.4322C149.494 74.1175 149.317 73.8381 149.089 73.5942C148.86 73.3502 148.589 73.1574 148.274 73.0158C147.959 72.8742 147.617 72.8033 147.247 72.8033C146.854 72.8033 146.496 72.8781 146.173 73.0276C145.858 73.1692 145.587 73.366 145.359 73.6178C145.138 73.8696 144.969 74.1489 144.851 74.4558C144.733 74.7627 144.674 75.0775 144.674 75.4001ZM160.059 78.6343V73.4997L157.533 77.4539H157.108L154.57 73.4997V78.6343H153.839V72.1659H154.606L157.321 76.4624L160.035 72.1659H160.803V78.6343H160.059ZM163.752 78.6343L166.702 72.1659H167.316L170.244 78.6343H169.465L168.567 76.6867H165.44L164.554 78.6343H163.752ZM167.009 73.0866L165.617 76.0375H168.379L167.009 73.0866ZM177.588 72.8269H175.098V78.6343H174.366V72.8269H171.852V72.1659H177.588V72.8269ZM185.382 77.9733V78.6343H180.625V72.1659H185.287V72.8269H181.357V75.0342H184.791V75.648H181.357V77.9733H185.382ZM188.666 78.6343V72.1659H191.074C191.821 72.1659 192.447 72.3115 192.951 72.6027C193.454 72.8938 193.832 73.2833 194.084 73.7712C194.336 74.2512 194.461 74.7903 194.461 75.3883C194.461 76.0414 194.32 76.6119 194.037 77.0998C193.761 77.5877 193.372 77.9654 192.868 78.233C192.364 78.5005 191.766 78.6343 191.074 78.6343H188.666ZM193.706 75.3883C193.706 74.8847 193.604 74.444 193.399 74.0663C193.195 73.6807 192.896 73.3778 192.502 73.1574C192.116 72.9371 191.64 72.8269 191.074 72.8269H189.398V77.9733H191.074C191.648 77.9733 192.132 77.8631 192.526 77.6428C192.919 77.4146 193.214 77.1038 193.411 76.7103C193.608 76.3169 193.706 75.8762 193.706 75.3883ZM204.834 70.2538H205.53L209.012 78.6343H208.138L207.053 76.0139H203.287L202.213 78.6343H201.328L204.834 70.2538ZM206.864 75.3647L205.176 71.2217L203.464 75.3647H206.864ZM211.925 78.6343V72.1659H212.657V77.9733H216.564V78.6343H211.925ZM219.54 78.6343V72.1659H222.455C222.864 72.1659 223.23 72.2682 223.553 72.4728C223.875 72.6774 224.123 72.9371 224.296 73.2519C224.477 73.5588 224.568 73.8814 224.568 74.2198C224.568 74.5739 224.481 74.9083 224.308 75.2231C224.143 75.5378 223.907 75.7936 223.6 75.9903C223.301 76.187 222.943 76.2854 222.526 76.2854H220.271V78.6343H219.54ZM220.271 75.6244H222.49C222.766 75.6244 223.002 75.5614 223.199 75.4355C223.395 75.3017 223.549 75.1286 223.659 74.9162C223.769 74.7037 223.824 74.4755 223.824 74.2316C223.824 73.964 223.761 73.7279 223.635 73.5234C223.509 73.3109 223.34 73.1417 223.128 73.0158C222.915 72.8899 222.679 72.8269 222.42 72.8269H220.271V75.6244ZM233.302 72.1659V78.6343H232.57V75.6598H228.451V78.6343H227.719V72.1659H228.451V74.987H232.57V72.1659H233.302ZM236.26 78.6343L239.211 72.1659H239.825L242.752 78.6343H241.973L241.076 76.6867H237.948L237.063 78.6343H236.26ZM239.518 73.0866L238.125 76.0375H240.887L239.518 73.0866ZM252.446 70.2538H253.143L256.625 78.6343H255.751L254.666 76.0139H250.9L249.826 78.6343H248.941L252.446 70.2538ZM254.477 75.3647L252.789 71.2217L251.077 75.3647H254.477ZM259.538 78.6343V72.1659H260.27V77.9733H264.177V78.6343H259.538ZM269.72 78.6815C269.247 78.6815 268.811 78.591 268.409 78.41C268.008 78.2212 267.658 77.9693 267.359 77.6546C267.068 77.3398 266.84 76.9857 266.674 76.5923C266.517 76.1988 266.438 75.7936 266.438 75.3765C266.438 74.9437 266.517 74.5345 266.674 74.1489C266.84 73.7555 267.068 73.4092 267.359 73.1102C267.65 72.8033 267.992 72.5633 268.386 72.3902C268.787 72.2171 269.224 72.1305 269.696 72.1305C270.381 72.1305 270.939 72.2604 271.372 72.5201C271.813 72.7797 272.147 73.1181 272.375 73.5352L271.797 73.9247C271.585 73.5312 271.289 73.244 270.912 73.063C270.542 72.882 270.129 72.7915 269.672 72.7915C269.287 72.7915 268.941 72.8663 268.634 73.0158C268.327 73.1574 268.063 73.3542 267.843 73.606C267.63 73.8499 267.465 74.1293 267.347 74.444C267.237 74.7509 267.182 75.0696 267.182 75.4001C267.182 75.7542 267.245 76.0887 267.371 76.4034C267.504 76.7182 267.689 76.9975 267.925 77.2415C268.162 77.4775 268.437 77.6664 268.752 77.808C269.066 77.9418 269.405 78.0087 269.767 78.0087C270.184 78.0087 270.581 77.9143 270.959 77.7254C271.345 77.5365 271.707 77.2415 272.045 76.8401V77.6192C271.714 77.9733 271.352 78.2408 270.959 78.4218C270.573 78.5949 270.16 78.6815 269.72 78.6815ZM271.939 76.0021H270.392V75.4355H272.576V78.6343H271.939V76.0021ZM278.834 78.6815C278.338 78.6815 277.885 78.591 277.476 78.41C277.075 78.2212 276.725 77.9733 276.426 77.6664C276.135 77.3516 275.91 77.0015 275.753 76.6159C275.595 76.2224 275.517 75.8172 275.517 75.4001C275.517 74.9673 275.599 74.5581 275.765 74.1725C275.93 73.7791 276.162 73.4289 276.461 73.122C276.76 72.8151 277.11 72.5751 277.512 72.402C277.921 72.221 278.365 72.1305 278.845 72.1305C279.333 72.1305 279.778 72.225 280.179 72.4138C280.588 72.6027 280.939 72.8545 281.23 73.1692C281.521 73.484 281.745 73.8381 281.902 74.2316C282.06 74.6171 282.139 75.0106 282.139 75.4119C282.139 75.8447 282.056 76.2578 281.891 76.6513C281.725 77.0447 281.493 77.3949 281.194 77.7018C280.903 78.0008 280.553 78.2408 280.144 78.4218C279.742 78.5949 279.306 78.6815 278.834 78.6815ZM276.26 75.4001C276.26 75.7385 276.319 76.065 276.437 76.3798C276.563 76.6867 276.74 76.966 276.969 77.2179C277.197 77.4618 277.468 77.6546 277.783 77.7962C278.106 77.9379 278.456 78.0087 278.834 78.0087C279.227 78.0087 279.581 77.9339 279.896 77.7844C280.211 77.6349 280.478 77.4343 280.699 77.1824C280.919 76.9306 281.088 76.6513 281.206 76.3444C281.332 76.0375 281.395 75.7227 281.395 75.4001C281.395 75.0617 281.332 74.7391 281.206 74.4322C281.08 74.1175 280.903 73.8381 280.675 73.5942C280.447 73.3502 280.175 73.1574 279.86 73.0158C279.546 72.8742 279.203 72.8033 278.834 72.8033C278.44 72.8033 278.082 72.8781 277.759 73.0276C277.445 73.1692 277.173 73.366 276.945 73.6178C276.725 73.8696 276.556 74.1489 276.437 74.4558C276.319 74.7627 276.26 75.0775 276.26 75.4001ZM285.425 78.6343V72.1659H288.411C288.82 72.1659 289.182 72.2682 289.497 72.4728C289.82 72.6774 290.072 72.9371 290.252 73.2519C290.433 73.5588 290.524 73.8814 290.524 74.2198C290.524 74.5267 290.457 74.8139 290.323 75.0814C290.197 75.349 290.016 75.5772 289.78 75.766C289.552 75.9549 289.281 76.0808 288.966 76.1437L290.689 78.6343H289.839L288.21 76.2854H286.157V78.6343H285.425ZM286.157 75.6244H288.435C288.702 75.6244 288.934 75.5614 289.131 75.4355C289.336 75.3017 289.493 75.1286 289.603 74.9162C289.713 74.6958 289.769 74.4637 289.769 74.2198C289.769 73.9679 289.706 73.7397 289.58 73.5352C289.462 73.3227 289.296 73.1535 289.084 73.0276C288.871 72.8938 288.631 72.8269 288.364 72.8269H286.157V75.6244ZM293.927 78.6343V72.1777H294.659V78.6343H293.927ZM303.423 72.8269H300.932V78.6343H300.2V72.8269H297.686V72.1659H303.423V72.8269ZM312.042 72.1659V78.6343H311.31V75.6598H307.191V78.6343H306.459V72.1659H307.191V74.987H311.31V72.1659H312.042ZM322.012 78.6343V73.4997L319.486 77.4539H319.061L316.523 73.4997V78.6343H315.791V72.1659H316.558L319.273 76.4624L321.988 72.1659H322.755V78.6343H322.012Z" fill="black"/>
<rect x="118.535" y="60.7339" width="203.611" height="0.811839" fill="black"/>
</svg>
